ply
format ascii 1.0
element vertex 1286
property float x
property float y
property float z
end_header
13.144820 -41.777065 -74.083405
26.440918 45.597267 -16.305269
-21.045124 -125.853844 -41.922531
59.274113 -108.257523 -53.108139
23.064129 -12.471222 -24.194416
-21.467224 -69.482819 -39.389946
15.677416 -89.179802 -63.660580
49.445271 -59.505184 -50.591522
16.310547 3.273163 -66.615273
-0.573366 16.472488 -8.776096
-8.382181 -32.701954 -42.679539
50.169060 14.784088 -18.073986
36.360222 -27.391914 -52.686047
-16.191004 -96.860886 -57.706936
-7.537988 -66.680862 -68.852798
32.561348 -66.047714 -75.782410
22.008888 17.527725 -29.463375
40.276367 -86.941582 -48.676102
15.677413 -62.881969 -53.740814
7.446499 -11.386002 -46.054993
1.326065 -82.087433 -42.849464
0.270828 -111.001167 -43.435333
34.523361 -111.634315 -48.676102
30.087496 -0.411453 -45.299309
14.411113 -37.808479 -49.942398
40.581200 -100.026611 -68.963081
22.219931 -19.686638 -70.625198
-8.727608 -43.043354 -64.293739
36.782330 -43.043350 -70.787247
3.747719 1.699055 -26.727001
-3.932876 -55.284210 -44.244072
20.158016 25.336563 -8.365721
-24.632965 -105.014153 -40.023090
41.396648 -2.099846 -27.360142
12.300629 -71.112885 -73.605301
49.023174 -125.882210 -51.208702
32.964893 -47.475384 -51.208694
21.375738 -80.187996 -44.913406
18.421051 5.845856 -13.430908
36.360222 28.924370 -21.266178
45.418037 -74.489670 -63.238483
-3.317001 -85.886322 -67.956001
4.069714 -28.024397 -63.449535
23.275188 -24.893133 -38.952419
-14.780209 -78.077499 -55.007572
12.722723 6.498081 -42.766731
0.000000 -0.000004 0.000008
30.872952 -84.408989 -73.273117
-13.869461 -115.050316 -55.218620
32.983421 -66.891899 -48.962345
2.015907 -98.338219 -56.062820
33.827629 14.362006 -11.174412
24.963568 -96.818771 -50.575550
-9.859543 -95.594589 -41.358967
22.219929 -16.662209 -53.833324
8.501749 -11.688512 -64.504791
47.545822 -114.377937 -63.625820
-15.343596 -61.193581 -55.007572
43.600761 -57.816799 -66.193176
5.124962 -56.128403 -71.378456
-15.135756 -45.364880 -49.840141
36.993370 13.095703 -27.029823
20.712521 -55.706303 -74.213036
50.194160 -96.016678 -57.118080
8.887051 15.417234 -21.239731
5.969139 -26.581520 -43.075481
44.380085 -39.575413 -57.751209
11.456413 -92.639893 -45.926743
-6.482740 -69.635536 -40.624214
7.235450 -50.641121 -52.834221
22.008884 32.301163 -21.212151
25.385672 -33.791016 -72.946747
12.390965 -8.220261 -32.847420
52.188904 -73.588715 -50.153446
28.137360 0.854858 -22.717064
-7.537991 -122.796066 -44.877228
21.381638 6.764221 -53.952332
4.702857 3.079060 -12.797757
28.551407 -94.750381 -63.918789
27.102617 -11.597050 -37.490498
6.955284 27.658079 -11.953571
-12.603167 -82.087448 -41.934944
5.969151 -69.635544 -46.708755
20.109447 -50.589867 -57.540169
41.636456 4.231659 -15.456511
12.300632 14.784103 -5.274210
-6.060644 -32.912991 -55.918480
42.902740 -86.874794 -67.670525
1.748173 -40.510773 -46.151199
46.549828 -106.358078 -49.731346
27.285114 -35.867691 -48.455818
0.903980 -37.936852 -71.469414
-12.603152 -109.101730 -42.886665
28.973503 9.085771 -36.516373
-24.844002 -115.222130 -48.312355
18.210011 -4.580215 -48.254002
34.671833 -32.279854 -64.383026
42.902737 23.226067 -12.017025
-16.098095 -58.449932 -42.555679
17.787905 -8.009212 -72.168671
45.224277 -47.897495 -48.288910
36.278606 -108.468582 -60.705910
32.772392 -53.384754 -76.586739
-7.267292 -54.228951 -69.992065
15.888462 0.127472 -24.405455
36.782333 -98.971367 -47.704147
14.200075 -29.114117 -70.378845
5.853289 -20.672161 -53.741287
19.265247 -81.032196 -71.993736
-7.537983 -105.302849 -58.901611
1.115025 -74.911766 -71.104683
12.511683 10.593922 -31.581123
38.952320 -37.767124 -47.198761
10.612236 2.213078 -56.062824
15.677410 35.677948 -11.833786
-7.960083 -44.309654 -40.547676
13.100989 -19.194809 -37.068405
1.115025 -98.549278 -44.297035
40.370155 -119.080872 -55.640724
47.736549 -84.408981 -57.329105
30.532701 -18.983765 -45.932468
-20.200935 -96.608513 -46.776657
32.772385 -78.288559 -46.980515
26.592018 -24.682087 -60.916950
24.819458 -44.942802 -75.901443
55.987770 -118.598923 -56.967785
31.288465 25.547607 -11.531454
28.551403 -57.605743 -54.242989
37.914745 -75.333878 -71.891502
38.470711 -56.972610 -48.631401
-12.521578 -86.941582 -61.550098
48.647835 6.131073 -25.038605
-20.834080 -105.935989 -53.101959
7.657547 -83.642853 -68.936813
-9.404938 -77.022263 -65.348984
47.013481 -50.219028 -59.017502
34.038689 -3.256577 -35.380009
-5.849594 -95.737045 -63.871632
22.642029 -70.388321 -49.520309
14.411118 24.703396 -19.366501
31.506088 36.100060 -14.639598
23.064133 -71.323936 -75.192245
-13.527502 -51.274273 -59.017509
23.064131 15.628294 -12.218018
50.711567 -66.800926 -58.173309
52.822060 -105.500084 -61.339043
-16.505238 -87.996811 -51.630798
3.375462 -60.138332 -50.364494
7.584764 -2.521912 -40.234142
41.847488 -72.590233 -48.726402
-17.035194 -69.743004 -48.887154
11.034335 -78.499596 -44.017078
11.878532 -18.983772 -71.160057
30.028753 -88.207893 -47.752502
30.661903 21.326626 -25.454895
42.058552 20.383499 -21.872873
28.286436 -9.486557 -49.731342
4.069717 -91.523811 -63.449535
15.888468 -29.325157 -44.410141
-2.472805 -26.841705 -48.676098
17.998955 -14.698151 -62.816399
20.742580 -19.827946 -30.606440
11.034336 -93.756210 -56.062813
22.407791 8.663665 -44.033020
-13.347822 -69.424492 -60.283806
0.903973 11.196261 -17.090837
-5.365539 -111.634315 -51.630798
28.129311 7.608430 -15.562071
-0.151260 -47.686436 -72.174866
42.058556 -67.102959 -68.668518
1.748177 -65.203506 -71.779236
30.740828 -101.292900 -57.118065
13.144815 -61.404633 -72.399399
37.626514 5.275936 -32.636372
-15.979950 -122.397820 -49.346809
20.531544 -89.685211 -45.863319
34.920147 -92.639893 -70.836258
43.261848 13.306750 -11.742508
26.863010 -5.707546 -29.681683
22.219933 -42.199169 -53.343792
-11.936453 -59.505184 -63.660580
10.120852 -3.577179 -68.936806
45.013237 -94.961433 -49.517189
12.722724 -51.063217 -72.828972
23.711325 -88.207870 -68.303665
-15.606812 -49.374832 -41.289391
13.355872 -15.634762 -51.630798
55.776741 -100.026611 -51.088806
6.391253 21.748734 -5.029341
-25.899261 -118.387878 -39.831520
-2.472805 -90.318359 -42.747440
21.375742 -93.502838 -58.173302
42.397316 -48.741684 -66.615273
-11.547920 -37.114891 -49.942398
-3.832649 -35.445583 -64.293732
38.048618 -59.716217 -72.877129
19.898394 12.040451 -36.242695
5.124961 9.718922 -7.002092
46.298115 -94.539337 -64.926888
23.908308 32.395294 -12.164627
27.918247 -27.425720 -46.049656
-5.638540 -103.825516 -42.322605
22.431501 1.276939 -60.705887
-16.201471 -54.017918 -50.153458
0.270828 -33.124050 -41.809082
7.862573 3.809540 -34.324768
5.124962 19.638224 -14.640660
-16.191002 -101.475037 -40.867283
-16.190998 -89.896240 -43.111454
14.200068 -45.575951 -53.700306
7.170997 -20.039003 -62.394295
45.725166 -106.358078 -66.193169
-14.080503 -73.645485 -41.131329
-1.206513 -104.209892 -50.364502
14.200076 -71.746025 -48.299858
36.360233 -0.373276 -20.606567
24.963572 -0.833549 -52.252670
12.089578 0.975876 -16.596632
27.496164 38.996140 -21.661827
22.008892 24.281300 -24.204618
0.481865 -48.903664 -47.831913
-1.628610 -63.515133 -44.297768
7.868595 -34.601395 -45.485744
10.190144 -1.466690 -48.264732
8.501743 -34.601391 -73.444458
42.902748 -64.148270 -47.711929
30.028759 -76.178070 -75.072357
47.895664 -58.660995 -58.806458
38.385406 30.190674 -13.219860
20.304560 39.898949 -17.440842
7.446501 -12.863338 -37.770542
48.178978 -121.342552 -58.279877
24.752525 -63.093018 -75.198433
44.802193 -80.187996 -50.599247
41.003300 -110.790100 -54.090870
28.925999 -22.993698 -53.108139
0.533482 -73.856522 -41.922535
-11.836286 -41.988110 -56.695965
17.576859 -34.870499 -75.268280
16.943710 -4.632431 -64.510651
29.608736 14.573043 -30.314825
39.737007 -32.778751 -57.962250
23.732386 -27.425724 -68.092628
-8.804287 -61.826729 -40.783421
0.164673 3.387440 -19.551332
39.785194 -38.611328 -64.504784
-6.904833 -115.011086 -42.651028
44.142784 27.658073 -18.707134
0.903978 -26.870649 -56.062813
13.989014 -54.862106 -54.441044
15.677416 18.582985 -24.558342
13.989021 7.359982 -50.786602
16.770325 -7.798164 -26.093849
7.024398 9.009071 -25.882792
44.380081 12.884636 -23.639641
12.511676 26.813904 -6.152605
-15.308223 -107.835434 -58.595406
33.901535 -100.659760 -64.504784
5.547064 -19.190231 -45.932465
12.511679 6.975280 -8.261427
-20.200932 -109.686035 -45.088268
17.365814 -94.345184 -51.419735
15.888465 6.917327 -59.650658
23.486225 -63.726173 -53.599781
46.068485 -40.299721 -50.075699
30.450848 -39.666565 -74.122101
42.269604 -122.608864 -48.926819
28.551409 28.502281 -23.178490
21.375731 4.020576 -20.437222
8.079636 -85.886322 -44.052826
53.877289 -66.047699 -51.026844
7.657539 -42.546547 -50.786583
-6.355438 -77.444351 -41.711502
6.602295 -97.119125 -49.942398
10.190132 -1.734550 -29.259594
-16.010632 -77.866463 -47.409805
33.616577 -2.681480 -27.571194
48.601063 7.249290 -17.440838
30.932468 -7.587112 -42.766727
24.964344 -17.717470 -63.660576
34.038689 -31.857758 -46.821140
47.673573 -75.544930 -56.062820
-13.928535 -40.932869 -43.821976
15.466351 -14.349464 -29.681684
-10.175979 -54.440014 -40.023090
-27.829981 -111.423248 -42.344631
12.089577 -78.499596 -72.162376
17.576853 0.255852 -53.952332
-10.492673 -117.210709 -48.887157
-14.713654 -66.258751 -39.403091
5.969154 -43.465446 -72.858688
26.229866 -14.551719 -30.699322
32.781998 3.176392 -38.967850
44.876591 0.854858 -21.239731
33.027931 -104.669678 -50.786587
11.245379 -11.597045 -71.462418
-14.291555 -122.608864 -41.816559
38.681767 -52.329521 -71.933937
38.048622 -82.720581 -71.413895
35.304977 7.397369 -13.122620
19.476290 -11.808090 -48.999825
-11.547915 -100.237663 -62.460514
27.074064 -50.219028 -54.691639
46.068485 -108.482864 -58.910011
8.923840 -64.872986 -51.630795
52.611008 -112.267464 -58.487946
25.698288 -18.139576 -40.445202
12.089577 -26.370480 -38.907116
15.466366 -84.620018 -44.411430
45.827011 -64.359314 -63.027451
8.501751 -24.893120 -68.503098
-3.950149 -60.560432 -71.501350
22.058380 -12.652282 -68.514709
47.967918 21.657871 -17.018745
10.190140 1.014957 -63.238483
20.320488 -33.757198 -48.419670
40.792259 -115.433189 -48.503113
18.380514 18.371933 -7.310483
-22.311424 -97.705078 -39.908993
49.234207 -52.428383 -52.263924
4.498226 -92.217796 -43.399883
40.864914 -114.166893 -60.916946
12.089577 -16.174503 -58.806458
41.619335 -32.279854 -50.997650
38.681774 -44.942791 -47.674191
32.983429 -27.506929 -59.017513
-23.366669 -103.403404 -46.882183
-9.226402 -88.418907 -41.390865
18.210007 -66.258759 -73.724121
20.953644 -57.183647 -54.957413
24.963572 22.499138 -12.797764
39.525963 -106.569122 -48.552032
52.399956 -106.569138 -54.244064
45.435333 -81.665344 -63.564980
32.561340 -40.528015 -49.309254
-20.536980 -113.111664 -53.530235
15.677413 31.457787 -17.651886
32.139244 -46.288242 -75.901451
46.601589 -88.418900 -51.630795
18.210007 -46.842243 -74.321175
42.058548 7.608429 -27.679760
55.565697 -123.242012 -51.699043
-10.281622 -50.007961 -65.245483
6.180211 -0.148621 -20.395519
17.998955 11.407302 -9.167137
-4.233849 -42.410213 -69.781013
26.440918 -75.333862 -46.338562
-16.396288 -62.670918 -48.254013
-3.852115 -38.822380 -41.922535
22.430983 -1.888779 -25.792772
28.996628 -16.029060 -52.263935
-0.252441 7.819481 -11.109358
36.360226 20.904510 -10.705951
57.043034 -114.589005 -51.428558
-20.834074 -119.487762 -44.666168
-3.997249 -79.132736 -69.147858
35.727074 -92.217796 -48.489777
26.018824 4.459370 -48.042950
3.858662 -32.068810 -68.944939
14.411125 -84.507202 -68.514725
26.018818 -51.696358 -75.698097
47.606388 -44.942802 -54.796516
-7.537988 -31.568470 -49.309258
30.350990 -59.716232 -76.956673
31.295046 -34.504917 -69.781006
32.772392 34.622715 -21.088516
47.756878 -68.580292 -49.123959
48.812122 -100.659737 -63.696106
49.234207 -100.237656 -49.653797
25.807770 39.476849 -13.672595
-12.027260 -93.484108 -62.605358
44.802200 -55.073162 -47.966358
41.425411 -93.273056 -69.251183
-3.316998 -100.237663 -59.506001
40.013939 -0.833538 -33.691624
8.290696 -66.047714 -71.755127
13.566927 -9.064457 -46.936218
17.154755 -15.184871 -72.184334
47.967926 -90.318344 -60.163906
33.405540 -54.017910 -51.708736
-12.603159 -80.399048 -60.728378
33.616585 -60.560425 -51.165184
27.496162 -82.297661 -46.565613
18.421055 -1.767326 -70.203102
44.380085 -44.731754 -61.851658
7.446503 -20.883190 -39.926243
22.642038 -38.822380 -76.484695
17.576859 -74.911766 -74.046021
-5.427498 -72.801285 -69.441597
-19.464535 -99.604507 -52.686035
39.103855 -105.513870 -65.834518
16.732655 -23.252647 -71.680473
-7.960078 -37.874981 -59.861702
38.470711 -80.610100 -48.972767
42.269604 -77.866463 -67.848068
-4.161203 -48.741684 -43.298954
30.872952 -96.438782 -47.815994
-20.623032 -66.223045 -44.877224
15.677408 -0.170021 -60.072739
8.923827 -58.660995 -53.230610
-1.552301 -30.802519 -60.494858
37.415466 -69.002396 -72.768806
-7.926544 -89.896255 -65.982132
25.596718 -80.610107 -73.736404
-0.995468 -54.017906 -71.281540
29.184555 -29.074726 -65.137939
42.902748 -101.081863 -49.264248
6.391251 -49.796925 -72.111877
17.998940 -23.145485 -35.802113
-4.794342 -83.775833 -42.215431
-8.804281 -83.564789 -65.683517
31.506094 41.826599 -17.440840
34.171501 -109.523804 -54.796520
10.879171 32.090118 -9.632021
27.367796 -18.772724 -57.751209
27.727362 5.920030 -41.922531
9.345940 -88.256134 -64.926880
35.516029 -72.590225 -47.329929
32.545204 3.176392 -17.018738
7.342689 -4.632423 -34.113716
46.912678 -119.886864 -52.263947
1.959221 -81.130608 -69.992058
36.360222 18.794022 -24.398031
-15.796648 -67.525055 -54.796520
-16.272379 -84.197937 -46.565628
22.097776 -28.692019 -43.821976
33.405537 9.903183 -32.003227
-9.437428 -110.790108 -56.338444
-12.066550 -111.363861 -50.382477
54.064651 -101.081863 -57.118065
-15.346801 -90.529404 -57.205391
7.235450 -74.489685 -72.308228
2.381302 -54.017899 -50.908386
29.517843 -89.685211 -69.992065
30.341358 -13.918583 -42.344620
26.440912 -96.837494 -56.695957
5.336007 15.628296 -5.139692
2.247711 21.959763 -9.632022
-14.625559 -84.197937 -56.273872
30.356335 19.427162 -11.953578
12.089573 13.876083 -26.304899
28.129318 -43.887558 -52.546295
14.472882 9.296818 -37.279449
-1.839661 -91.305595 -65.348991
16.943708 30.612778 -8.603353
-6.505302 -48.108540 -69.781013
2.592369 -23.441671 -49.309254
38.048626 -50.852169 -49.256180
-20.623026 -118.792999 -50.997643
45.435337 2.332199 -28.564619
36.278984 -115.222145 -53.319183
9.979087 20.693462 -18.124950
6.359729 -74.700714 -43.399868
-0.151276 -27.214668 -43.046249
-10.085106 -70.901833 -65.348984
20.109430 -30.669369 -71.680458
0.059792 -95.663506 -61.550098
13.144813 20.904503 -5.094841
19.265251 -74.751694 -46.987709
2.592373 -86.941551 -67.086411
28.762461 -6.169586 -35.380009
37.894756 33.778530 -18.073988
16.732662 14.580962 -30.103777
22.642036 9.959993 -14.486143
5.758110 -24.426743 -58.595409
14.200073 -9.908630 -64.018555
-18.037678 -93.906181 -51.630795
-4.583302 -97.916122 -42.768219
23.486227 -91.698158 -63.449535
28.340363 13.095704 -13.057433
-16.613098 -95.683792 -41.922531
17.576859 -67.947136 -51.301041
2.803423 8.241577 -21.828674
7.477088 -15.818024 -50.364494
12.858212 -13.707533 -34.957909
-23.999817 -109.523834 -49.571648
25.807770 -92.217789 -46.964310
25.174616 13.306747 -34.008926
27.370985 -66.891907 -50.575550
23.908319 -5.687675 -49.125641
5.758106 -94.685226 -58.595409
21.329823 -6.953953 -67.670517
-11.493000 -65.414551 -64.082680
53.718807 -70.479744 -54.796516
-4.794353 -116.277374 -47.895359
28.762457 -70.479744 -75.775108
-17.246243 -102.559204 -57.212830
32.561333 -25.315231 -48.847969
-8.751347 -60.982536 -68.303680
47.334785 17.105629 -13.528587
17.787891 -17.019264 -57.540165
11.409071 28.080183 -15.752441
7.235452 -8.220259 -41.180267
18.297443 -27.847809 -39.389946
29.395597 30.823814 -12.916477
33.616585 -83.775833 -48.501335
-15.096270 -49.585880 -53.741280
8.351246 -16.873260 -67.037369
-13.939858 -56.972599 -58.806461
-5.216442 -109.523811 -42.368439
49.867363 11.196258 -22.510403
-18.934643 -106.569138 -40.473991
58.098289 -112.689545 -56.704731
24.427092 -18.139572 -34.746864
-9.648476 -38.150524 -41.289383
9.768038 1.699049 -43.533905
19.265253 8.296646 -48.887157
35.727074 -37.978180 -68.461281
1.115028 -68.456642 -43.821976
51.555759 -117.332649 -60.811726
15.888462 -92.163918 -58.595409
-10.703720 -101.292900 -42.241756
-4.418644 -106.780182 -54.374435
45.646385 -116.277382 -58.649635
38.681770 -67.947136 -48.242710
15.255314 -56.128391 -72.866478
44.903740 -52.962669 -63.660580
-11.758973 -46.209099 -60.784237
32.561340 -2.521919 -40.742378
24.541470 -6.953964 -24.695173
18.856831 27.658079 -21.028671
27.551785 -22.782644 -42.977772
29.395601 -100.078934 -51.841843
-0.995472 -109.734871 -48.717812
38.681767 -88.418915 -70.967781
10.401192 -29.958313 -43.760105
-22.846889 -110.579063 -40.023094
10.190145 3.396515 -11.953568
-13.283447 -74.911781 -59.439594
52.399948 -95.761147 -52.052872
34.030212 -79.765900 -73.790939
41.847492 -110.156952 -64.576828
46.954296 -69.635544 -61.128002
3.225513 -64.781418 -47.337181
49.116348 -64.148270 -53.530239
18.632101 -60.771477 -73.608597
21.374165 -1.466698 -65.348976
46.701637 -74.067574 -50.835373
-15.557856 -72.801292 -53.316845
-2.129753 -43.676498 -43.821976
34.882889 23.989029 -23.139153
49.656322 -109.312782 -63.787930
23.908329 42.992424 -20.395515
17.365808 9.273712 -41.922535
46.912689 17.949829 -21.122772
30.028753 -71.323936 -47.719769
-1.206528 -105.649246 -45.088276
13.144826 -33.335087 -47.064373
-18.301489 -71.224945 -43.610920
-0.458834 -58.660995 -46.776665
40.581192 -43.465454 -66.840286
19.687349 -16.104141 -26.726995
35.785915 -97.494019 -68.514717
10.401185 -0.622482 -23.794815
56.568844 -107.413315 -57.751209
-0.995466 -69.846603 -71.082573
24.330429 10.174758 -39.178886
1.115025 15.628299 -13.957949
8.923843 -30.299276 -69.781013
42.691704 -72.379181 -67.599716
25.385675 20.904510 -26.906242
25.807770 -57.183640 -75.464096
-13.897736 -63.937218 -59.439613
38.048626 -119.605705 -50.575546
20.953642 36.871468 -13.008801
-16.247099 -49.796925 -46.776672
40.581200 8.663668 -12.547104
52.188915 -119.098915 -53.108139
41.003300 18.160881 -10.838602
24.466686 -22.360546 -66.404228
4.491815 -69.846596 -72.166565
24.541473 -13.285423 -50.361980
44.169052 -36.475689 -53.319187
2.170267 -87.363670 -43.270844
2.170273 -100.062866 -50.997643
37.837563 -62.459862 -48.481171
47.714481 11.618361 -14.486143
6.908272 -17.295366 -57.751221
7.119221 26.813896 -6.677336
16.611361 1.699055 -19.340288
11.456424 -94.844551 -50.786587
4.913910 14.995151 -17.706358
51.977848 -123.994804 -55.640724
-15.642815 -82.087433 -51.419735
1.326071 -59.927288 -71.090424
19.687351 5.286881 -63.011402
9.345941 -6.109772 -45.583107
41.599201 -61.826729 -69.147858
27.285110 33.567471 -22.176277
4.280758 -46.661938 -50.786587
7.868600 -60.771484 -71.352623
-17.577194 -110.518845 -49.971142
10.612236 -91.373604 -60.826172
6.560518 -15.395938 -42.344627
-9.648476 -36.922939 -54.927437
16.310566 -78.710648 -44.403580
-5.247718 -28.903069 -44.666168
-3.317000 -29.114122 -53.457321
33.827641 -72.529030 -74.635132
-16.824150 -125.686836 -45.299316
-23.632162 -114.800049 -43.188828
6.180206 -79.981468 -42.555679
-10.703716 -118.686333 -43.821983
-10.070572 -49.163773 -40.111992
22.999743 -85.042122 -46.143517
28.973503 -4.349907 -48.676098
16.156799 -18.561653 -32.847424
18.421053 -41.566017 -75.021431
-24.918289 -122.397835 -43.188828
39.948059 25.125502 -21.137474
30.132547 -13.918578 -47.620857
19.687347 -38.252243 -50.997643
10.401184 -46.209099 -73.019272
10.893337 3.176414 -50.575546
36.360229 -47.686440 -73.093254
15.044267 -3.366127 -28.355457
26.440922 4.231643 -19.130692
19.265255 -46.420143 -54.436497
0.131542 -32.279854 -65.348984
6.180206 5.286880 -29.540606
24.037197 2.754295 -55.851768
37.065136 -112.689545 -57.751209
49.023170 -91.341637 -55.218620
28.762461 44.672745 -20.817617
5.825363 0.010658 -31.370077
11.878532 -3.788223 -64.098335
10.049803 4.231638 -38.967842
-26.110306 -107.458649 -45.299320
22.430992 -76.600151 -74.329147
-15.557851 -117.543694 -51.052849
18.843147 -86.940430 -67.248421
10.190141 -55.495255 -71.979195
33.741146 -104.036537 -60.283821
26.847828 -10.541786 -27.571198
-10.480448 -55.073162 -65.982140
43.165607 -123.030968 -53.952339
45.958858 -86.941566 -63.449535
-1.417567 -102.137100 -55.038105
28.973497 -62.459862 -52.556900
-13.025258 -44.942806 -40.678104
-1.413515 6.764222 -15.963509
39.948074 -95.172485 -48.954754
9.556988 -38.400272 -48.497143
42.595932 -110.579063 -49.098213
23.697273 27.236000 -11.475696
16.732655 36.354515 -16.807693
-9.015323 -114.800049 -53.262096
47.001137 -79.554848 -59.228561
-10.070577 -112.750671 -45.932465
11.245379 5.004148 -60.283813
36.360214 25.969702 -11.333751
-16.612789 -63.515125 -43.188828
15.466343 -89.685211 -45.236599
12.822135 6.764217 -55.640717
5.336004 -38.490074 -73.790947
0.903976 -42.832314 -72.929626
15.888465 -50.219028 -54.684978
45.013237 -101.292908 -66.969635
13.271881 -32.912998 -73.579887
25.385668 -31.836735 -46.143517
12.933779 -6.742923 -71.623619
41.904488 -53.595806 -68.303673
-12.181068 -124.086220 -46.546547
28.340357 -1.677742 -27.037333
57.185722 -103.825516 -54.163372
22.642036 -17.768799 -59.228561
21.164686 -94.117233 -48.172783
23.064131 -84.197929 -71.222633
40.370155 15.839338 -24.125950
14.878120 -1.255646 -49.942398
13.777966 -0.200394 -69.179558
4.702856 -31.435654 -43.343094
30.661900 -3.155846 -31.581118
32.561337 16.894577 -26.948101
27.736824 -10.119707 -32.425323
12.300627 32.934311 -14.345290
30.239799 -98.549271 -61.231598
22.853083 37.366348 -20.841702
42.691700 27.869131 -13.948208
36.614029 0.854851 -36.857365
3.457050 -36.500839 -43.821976
17.576862 -51.696373 -73.670952
6.602303 -79.343796 -71.124405
-1.909569 12.462549 -11.320423
17.576860 22.803955 -22.654301
27.496159 -31.224607 -69.324875
9.768036 -72.955261 -46.565613
-3.105965 -65.414551 -71.023598
25.807766 -39.877625 -50.925034
9.244294 -8.431290 -68.092621
8.079643 23.859207 -14.833956
-4.583302 -59.927277 -42.756775
-11.336868 -35.610409 -45.299320
31.717146 -94.539330 -67.633270
10.394179 -68.791351 -49.098198
6.813358 5.708985 -9.214373
-13.236315 -41.339581 -51.841858
-17.601442 -91.162544 -47.620865
-16.517200 -54.440002 -45.299320
13.355872 -66.258751 -72.746391
38.048622 -29.747269 -48.773922
58.205753 -119.232086 -52.686035
34.038685 -87.996803 -72.420975
-9.226395 -73.645470 -40.561031
-15.135756 -54.228962 -40.353264
9.924195 10.563126 -6.255236
-2.791472 -37.978176 -68.303665
33.405540 6.380604 -35.380009
38.470715 12.884645 -11.202699
48.517662 -54.228962 -56.695965
41.320419 -36.711884 -60.283813
45.224266 -59.927277 -48.096718
-11.999287 -104.880745 -60.705910
17.365801 -41.988113 -53.065887
-19.567785 -65.051498 -39.600990
21.375738 -24.471037 -71.208656
18.632099 -10.541794 -65.860535
-4.583298 -119.143295 -43.821976
-15.100862 -54.228958 -55.007572
47.756866 -104.880745 -61.617893
42.131107 -41.566017 -47.620857
-15.463286 -45.364899 -44.877220
-1.628609 -78.288559 -41.865475
36.571281 -64.359314 -73.748238
37.837563 9.019005 -29.470642
40.581200 -1.255653 -22.700222
32.139244 -36.289787 -47.123245
9.556989 -46.420143 -52.830170
47.679493 -80.399063 -54.585480
20.109438 20.271366 -25.947737
21.586782 -95.010345 -53.530235
44.894825 7.608428 -14.275099
34.671822 -57.605736 -75.490585
24.119385 -46.420147 -54.431553
34.038689 32.301163 -13.316386
37.415466 2.516655 -16.807688
49.445274 -71.257713 -57.118065
31.955341 -107.835419 -47.409809
21.860886 20.060326 -10.054131
-10.070580 -66.469810 -40.336983
21.375738 5.618698 -58.595409
12.089561 -41.459324 -52.052891
24.963579 -54.440002 -55.087818
-16.190998 -58.661003 -51.070683
37.626518 -2.896187 -30.103783
-17.035191 -111.697830 -56.484917
-5.427498 -64.992470 -41.745552
6.180208 11.618370 -21.965700
32.561333 -25.463692 -54.796528
0.270821 -94.134613 -42.555687
-13.447380 -61.615673 -40.059689
-0.784439 -53.384769 -47.172234
36.016277 -116.066338 -48.253998
1.110451 12.040466 -7.732567
21.797840 -49.819180 -74.846184
-20.834082 -102.137100 -40.324062
5.124962 -96.357323 -45.510365
11.456427 -13.074382 -48.127731
10.843195 7.397369 -34.746857
32.350296 -1.085792 -23.350216
18.210011 -15.395935 -51.778313
41.599716 2.965340 -31.159035
42.636314 -90.951515 -49.098194
-14.924702 -78.077507 -42.871620
-20.200935 -123.208755 -47.409798
7.446495 1.065918 -15.983550
41.636459 -77.233315 -48.410515
2.592371 -23.783398 -44.666168
32.983437 -105.112511 -55.640717
48.861580 -96.438782 -61.550098
15.385139 8.030515 -46.354568
-22.588371 -99.815559 -44.033020
-6.693787 -92.217796 -42.415604
47.756866 -107.622292 -54.026443
48.178974 4.101105 -20.817623
44.802193 -68.791344 -65.335258
36.782326 -29.325157 -57.052010
52.611000 -103.403389 -50.856075
48.770882 -47.897488 -51.419727
47.334778 -63.937210 -49.261192
7.235439 -95.805618 -54.336056
-26.532404 -118.176842 -44.455124
8.501746 -8.928738 -35.380020
-6.060646 -39.373146 -65.348984
26.863012 -91.397522 -66.615273
55.024033 -109.101730 -51.419735
12.089574 -37.345028 -74.773125
14.622169 3.242928 -13.430908
23.697285 28.377213 -22.928120
32.561344 -100.659767 -48.560303
9.768038 -17.079411 -54.163372
41.757393 -82.509537 -68.514709
19.265247 -91.208725 -61.550095
47.786186 -63.304070 -59.017513
-3.950151 -73.434418 -41.040894
42.983265 -117.332634 -52.052895
7.286745 -0.411440 -36.013153
13.144823 -66.588615 -52.052879
55.544670 -97.282974 -55.007572
26.863018 -40.932861 -76.716377
6.877396 -24.471027 -64.082687
9.408226 -16.873276 -38.756794
-13.570762 -46.209099 -56.484917
12.511680 -24.893133 -70.746475
-4.161201 -34.179295 -41.616180
-6.271706 -52.329514 -41.437588
9.345942 18.160881 -4.498613
39.479755 -47.264339 -69.781013
7.783083 -15.395943 -61.972198
40.370152 30.190674 -19.537943
20.742596 -1.957367 -50.997643
23.064131 42.853630 -14.995518
25.385685 -94.539337 -60.465130
26.651974 24.703403 -24.768677
16.732660 -70.479752 -74.434349
43.958008 -84.620033 -50.222420
33.827637 37.910599 -18.073996
-16.402042 -120.429871 -45.299316
16.310562 23.859207 -6.362228
42.902733 -36.500835 -48.970608
16.943710 7.841672 -54.163383
20.531538 14.573040 -32.530575
-21.256178 -121.553612 -40.589035
14.411118 10.985213 -6.474456
31.506098 9.929961 -13.496399
12.334261 18.794022 -21.450768
-7.326935 -101.292900 -61.235130
25.385674 -67.525055 -75.977394
18.843147 -11.808089 -25.569738
-3.105961 -112.581108 -45.932465
55.246010 -70.268700 -50.364487
45.859539 -59.716225 -62.816399
45.013229 23.437096 -19.928707
-13.236317 -86.519478 -42.073830
43.746937 -97.071922 -67.765724
38.150795 -33.968246 -61.972202
0.866157 -102.137100 -46.987709
-5.216446 -34.331917 -60.072773
23.697283 1.823227 -23.561266
11.365535 -82.931633 -43.399879
-12.181076 -91.795700 -41.721828
27.285099 35.044792 -13.632515
23.729588 -17.295355 -28.204338
36.360229 -103.403374 -47.961292
16.099514 11.864510 -33.902657
12.089579 -13.496494 -62.369576
41.214336 0.994621 -18.707138
-17.035210 -70.057648 -39.480255
13.254778 -4.632431 -47.198757
-13.447374 -104.880745 -41.759178
27.074070 -86.097366 -71.379158
16.732655 -58.660995 -54.617485
35.516029 -87.785759 -48.556133
14.411118 -9.908648 -29.203089
28.129314 -47.897491 -76.899368
6.298256 -55.073151 -52.686039
20.320496 -5.687660 -24.292810
11.608070 -51.063221 -53.952332
44.341053 -90.951508 -66.615280
-10.703735 -78.077507 -41.227222
1.959220 -44.731754 -47.413948
22.201437 -21.727390 -36.013168
-2.050716 -101.503967 -43.481361
45.857422 25.037270 -15.119289
27.707211 0.432755 -49.047207
17.787903 -54.651047 -56.677715
40.792259 -114.779404 -56.484917
1.686531 4.231644 -23.772308
19.687347 33.346611 -10.687273
50.289474 -107.492065 -58.173313
15.466360 -93.484108 -47.506950
23.064131 7.186326 -17.864916
40.792244 -57.605743 -70.008301
13.566921 -75.255760 -45.510365
31.781048 -6.320816 -38.545753
9.197330 8.452644 -29.681679
44.802200 -112.267479 -60.799141
3.225515 1.542336 -17.018740
-3.739100 -50.641125 -72.027733
-9.030258 -106.569145 -42.555676
47.334774 -124.086197 -54.990925
42.646095 -40.721817 -61.972202
-12.453271 -54.228958 -62.183243
31.573908 -92.217789 -46.987709
36.782326 -2.191704 -24.616503
2.929738 19.005096 -6.466274
36.782314 -76.764397 -47.831913
42.480640 -51.274269 -48.264259
29.606647 -32.490906 -47.013561
29.961243 -19.827955 -50.153446
29.184555 -24.682091 -57.411186
11.785478 5.075840 -46.776672
28.762455 -63.937206 -76.619553
-25.688217 -113.955856 -39.464352
11.456429 -88.629951 -43.964550
3.225518 -24.207739 -53.530235
26.436754 17.316679 -29.259586
51.555756 -99.604507 -60.308285
32.350296 30.401731 -21.899923
-16.311983 -73.434425 -46.776665
-26.222530 -111.634315 -46.354561
24.752525 -59.716248 -54.521046
23.203869 -16.662220 -67.459465
45.435341 3.911087 -17.440849
33.405540 -42.832310 -73.685387
43.958008 -120.142227 -57.751209
2.381325 -51.274269 -71.712463
-8.382179 -81.713120 -41.078350
43.324848 -68.580292 -48.362000
5.758106 -40.299713 -47.666763
50.289463 -121.873260 -50.364494
40.867691 11.407302 -26.093849
7.753645 -21.094255 -66.615280
54.721497 -114.903076 -55.218624
25.596714 -26.581530 -42.548424
14.200075 5.232376 -63.449535
29.817701 -80.399040 -74.365486
47.334778 -84.408981 -52.903667
2.592369 -77.649689 -41.922531
47.158794 2.121162 -24.616508
49.207726 -58.027840 -54.585480
29.879925 -53.384769 -54.163372
-16.638168 -58.660988 -46.776665
52.478462 -120.709427 -58.384357
-2.568863 -68.158195 -41.711487
26.229858 18.371941 -12.962776
48.484001 -94.117233 -51.841843
26.229864 -74.278610 -75.167130
9.134899 -40.364754 -73.579895
19.265247 0.641411 -57.962250
16.310562 7.528694 -10.054123
26.018822 -87.996811 -46.321003
36.360229 -41.143921 -47.559967
45.435341 8.874737 -25.121574
-20.834074 -114.800064 -49.642582
11.555348 -62.037781 -53.319183
33.827637 -61.826717 -75.715439
19.898399 -61.615673 -54.270893
-11.970012 -121.131531 -49.639275
-7.326939 -119.865211 -47.899426
45.013237 -48.830017 -62.605354
-13.236315 -98.127182 -41.092422
37.204418 -101.715012 -66.888626
24.541473 4.488159 -52.052879
-9.859531 -41.572147 -60.494843
20.109442 15.042785 -9.209913
16.521610 14.620369 -6.466278
-21.052845 -100.448708 -48.887154
6.813354 -28.362173 -66.615280
39.767654 -71.746033 -70.625214
23.275185 -36.500839 -49.601299
33.405540 13.095703 -29.215525
-17.879398 -116.277374 -54.316692
-12.603165 -69.846596 -39.964001
-23.577719 -119.232086 -47.833359
21.797836 -34.812447 -74.867287
-16.339741 -65.836662 -50.997643
0.481882 -34.812454 -68.657089
15.044266 -81.243248 -71.057480
46.896210 -54.862106 -60.494846
38.681770 -111.845367 -48.164185
7.024398 -0.875206 -26.515938
39.361198 -30.380413 -53.952328
-6.904861 -56.761543 -41.359722
25.596718 -26.792580 -64.421501
37.837551 -33.757195 -47.294353
29.817701 -23.174778 -46.565617
46.279537 -40.932869 -54.183151
47.272663 -44.309650 -49.942398
46.279530 21.115570 -13.224491
29.540115 11.618362 -33.269524
19.687340 -11.808083 -71.821487
30.381878 2.754288 -42.344627
21.586792 -67.015205 -51.841850
-0.151262 -26.179600 -52.052883
18.210011 -19.194805 -72.052162
44.970509 -125.141449 -50.786587
49.023170 -111.845375 -60.574379
22.430984 -59.505180 -74.658844
9.768040 -15.395915 -70.629791
46.068485 -110.790100 -65.214073
4.913908 23.859205 -12.155262
-14.713650 -100.237663 -59.811295
18.210003 -93.585922 -55.429676
4.280754 -35.023483 -71.815697
30.163374 -10.119701 -45.932468
15.466361 -13.109881 -49.098198
13.355870 0.904488 -53.108124
31.506102 39.687893 -20.996330
12.933778 0.019943 -20.606565
-16.087322 -109.473534 -45.088287
30.239796 -10.541798 -39.983109
21.225531 -15.606972 -71.258347
-14.291557 -41.788841 -47.831917
23.064137 -9.697601 -48.739834
28.814840 -36.078732 -72.946754
-10.492676 -124.930405 -42.890602
47.002945 -51.696377 -48.887154
29.395611 -55.706303 -76.912155
20.742590 29.417662 -9.632017
-13.040613 -111.001160 -54.374435
13.989021 -23.204742 -36.959724
17.998951 -27.214676 -70.983604
1.731785 -28.058872 -60.072754
-11.474212 -74.067574 -63.027443
15.255314 -11.386009 -72.319130
-18.512547 -107.835419 -56.029953
-8.533979 -46.420151 -66.615280
48.319332 -49.374828 -55.218620
30.872942 25.125502 -23.929619
31.952772 -108.679626 -51.419735
8.596574 -2.310879 -44.244064
28.551407 42.431507 -14.668136
0.903976 4.531418 -13.430908
45.832855 -43.465454 -58.173313
-20.623030 -95.383545 -42.897243
35.727074 -30.591461 -60.792988
39.314919 -78.921707 -70.536514
18.210009 -71.255653 -48.887157
49.867359 -117.813286 -57.118080
-15.818712 -76.389107 -51.208702
34.671833 -43.994984 -49.942398
-9.015320 -111.001167 -42.323845
3.819950 -71.534988 -43.821983
18.421055 -2.521927 -26.258066
-12.814208 -57.605736 -39.900074
-14.392959 -71.746040 -57.118065
9.979083 23.648148 -5.118473
55.020672 -110.368004 -55.429676
36.993370 16.894579 -10.667968
19.476294 1.540272 -23.139162
26.518499 -14.551719 -34.746868
19.687347 35.255859 -19.361473
29.817705 -27.059647 -61.550106
8.712790 -24.734623 -40.445190
-9.015326 -34.371574 -51.841843
48.601063 -55.495255 -49.693203
46.912682 -73.434418 -59.626781
19.265251 4.020584 -16.986589
44.078835 -61.826736 -65.771080
32.772388 -37.978184 -71.217316
41.195381 -60.138329 -48.254009
-4.372252 -56.550495 -71.703918
50.261250 10.774155 -18.496078
53.033104 -109.523811 -61.456566
-9.859523 -96.649826 -63.814804
14.411116 -45.575951 -73.714073
11.034340 -81.876396 -70.251595
49.656319 -72.948334 -53.319176
8.501747 -70.057640 -72.828262
7.027657 -5.898716 -37.912594
6.602304 -15.296481 -46.354568
5.624578 -19.405857 -49.942406
25.174606 -79.132744 -45.645386
39.736992 -64.781425 -71.116913
14.200071 -16.632586 -55.429676
-0.151276 -37.133984 -42.196335
13.566925 -74.911774 -73.458458
35.727062 -51.485325 -74.498657
27.381882 25.758644 -12.375668
26.365042 -20.672157 -61.127995
36.993366 -35.777237 -65.348984
35.917290 -104.458633 -63.660587
19.054199 -0.525970 -62.183243
3.014466 0.595688 -22.717070
-7.326937 -79.976952 -67.110268
8.712769 -95.414398 -46.987709
20.220985 2.332199 -65.771080
26.229851 -72.054321 -48.676105
44.278461 -0.622498 -25.038607
22.934692 6.975280 -48.042953
6.180210 -22.571577 -43.299370
-1.628612 -86.308426 -42.746101
11.034335 -4.486473 -32.003227
35.938126 -108.046478 -47.688904
15.888468 -38.461170 -75.057236
11.878532 0.982361 -59.650665
-26.321358 -108.679642 -39.813625
-11.336870 -108.257523 -58.721989
31.506094 -97.282974 -64.783524
19.476295 -83.775841 -44.855656
12.300629 2.203476 -66.404221
42.691696 -110.884918 -57.751221
51.344696 -69.635544 -50.507690
-11.956070 -117.543694 -52.686035
17.576862 -8.431313 -47.662365
42.269592 -104.036530 -67.685577
54.721489 -115.592583 -59.228565
3.647611 -46.631187 -72.278534
-16.191004 -112.900620 -52.825367
-1.628605 -82.509529 -69.114990
-2.683863 -75.544922 -70.139725
30.450851 -75.122818 -46.618706
52.399956 -66.047714 -54.695843
44.380085 -109.139000 -52.686028
19.265251 -30.802498 -45.786709
-4.372253 -103.825508 -57.091766
14.411110 -93.778069 -53.952332
31.506092 -31.760180 -66.826324
8.290680 -90.951508 -44.139874
30.757851 -4.421371 -45.088272
-13.869467 -104.334930 -56.273872
17.998955 17.382698 -27.571192
31.084000 1.065903 -20.129301
31.717150 -28.692026 -46.923004
16.521618 -34.812447 -48.533718
42.457512 -35.445602 -56.695969
4.702858 -83.986885 -43.442116
4.069720 24.281303 -6.915728
-14.664744 -93.695129 -59.439606
19.833412 9.085771 -11.742508
-8.708054 -113.533752 -49.520309
30.028751 6.037949 -38.756805
-5.427490 -87.785759 -42.318626
13.144825 -87.152603 -65.921486
-2.472805 -30.380409 -42.328991
3.014469 5.839447 -10.265167
4.280762 5.920033 -26.161406
38.259670 21.748730 -22.680641
1.959217 19.097218 -12.375656
-3.528049 -45.786980 -71.591644
11.245385 24.281303 -17.138496
22.008883 -65.836655 -74.463745
34.671833 -83.564789 -73.185043
37.415474 -55.706306 -73.492966
14.622170 -28.747036 -40.656242
20.531544 -89.474159 -64.791000
29.561373 -47.686440 -53.108139
58.565411 -116.277382 -55.218620
38.048622 -94.903671 -70.414154
-16.730103 -93.695160 -55.429672
26.018808 -17.084312 -54.521919
23.064133 -50.219025 -55.050224
6.391247 -66.258759 -49.023582
-6.801308 -76.178055 -68.092621
59.646381 -112.267464 -53.108124
30.028753 -43.043358 -76.006477
21.727905 -15.606979 -63.871620
23.908321 -30.802513 -70.706123
48.390018 -87.532295 -55.007584
10.190132 -54.862106 -53.727436
9.705002 30.401731 -13.008796
11.034335 -7.587097 -64.775574
20.531540 10.469547 -39.812042
44.585762 -78.077515 -64.715843
11.171844 -21.727402 -39.389950
9.027271 12.251511 -24.616510
27.094082 -14.551719 -40.234138
26.018822 -37.365948 -75.268288
28.994473 -78.710648 -45.932468
21.586788 0.174736 -54.374416
28.973497 -17.506424 -42.647766
18.421051 -84.068314 -69.781006
3.534664 -99.393456 -47.409805
33.616585 28.713333 -11.983995
32.561333 -29.466385 -62.816399
39.072578 -110.790100 -61.972191
6.602304 -61.617455 -51.841850
8.986404 -12.441241 -68.303673
25.385668 -14.129638 -26.795435
-10.985561 -89.896240 -63.660587
47.756874 -117.648155 -61.550087
3.647606 -50.430073 -51.426559
15.044266 -3.366127 -71.077927
31.928192 6.480988 -15.119295
49.902798 7.608429 -21.028671
37.415459 -84.408981 -48.932976
50.078423 -106.358528 -51.208694
35.320507 35.466904 -15.541405
12.722723 -58.449944 -54.075043
-22.970837 -105.724937 -49.942383
13.355869 -14.762787 -71.788483
-27.984251 -115.433174 -42.133591
-11.385694 -83.353745 -62.816391
47.756874 14.361999 -22.218248
34.671829 -95.805634 -47.422432
-6.271682 -63.304062 -70.097351
6.391251 -86.713264 -66.826324
-13.265543 -96.860870 -61.339046
23.064117 -73.899216 -47.620861
-4.794353 -69.002388 -70.123550
-17.246246 -125.141449 -41.551907
5.124964 -63.515121 -71.265457
41.214348 30.879589 -15.752441
7.313770 17.949831 -17.651882
-10.914776 -41.777054 -40.778343
-18.626762 -98.549278 -40.445187
42.902756 -104.880745 -49.192364
42.480637 -45.364895 -47.589844
40.792259 -114.217987 -52.474983
35.304962 -57.183640 -50.838795
25.385674 6.478653 -44.877228
-2.050713 -46.842239 -45.897259
-3.105955 -30.591459 -57.052711
24.752525 13.095704 -14.499953
-18.723587 -118.449562 -47.620857
-18.933350 -66.258751 -48.254002
44.380089 -119.443130 -49.251484
17.576851 -17.611084 -29.470633
14.622163 1.139763 -56.695957
55.143585 -121.955406 -55.429665
-17.879391 -93.195724 -44.455124
-1.628609 10.141009 -14.307404
21.160669 -44.309654 -75.268288
0.059784 7.397367 -19.390722
43.746929 16.472488 -22.519142
51.133656 -103.529602 -56.062813
-21.633331 -69.424507 -43.188828
36.417183 -47.475384 -49.731346
52.610996 -125.504196 -52.263935
-8.363148 -51.063210 -68.303673
38.259663 -40.721817 -67.915459
15.888465 -78.077499 -72.879402
40.150120 25.969696 -11.953568
9.378654 -21.516357 -69.992065
-6.904838 -40.721817 -40.741245
31.209053 -50.007973 -77.167732
42.976238 -0.411427 -30.314835
46.760582 -83.986877 -60.916958
16.521616 -31.315523 -72.524643
-3.528061 -94.328285 -42.853855
45.857422 -98.760323 -49.023773
47.334785 -77.444359 -52.324799
-21.678288 -109.657089 -52.686039
50.500519 -66.047699 -49.150097
8.079643 29.704594 -8.998872
46.490574 -90.740456 -63.564621
32.772377 22.170799 -10.982216
21.164686 -9.275494 -23.743319
-21.774311 -116.277397 -46.354565
24.963577 -21.908100 -40.445194
29.395601 -38.611332 -49.821465
12.933778 -0.761330 -26.515936
49.217987 18.160875 -16.807693
18.732851 31.245924 -19.762367
34.882881 10.841247 -11.742509
38.259659 5.497940 -14.341978
-13.440681 -60.349380 -60.283806
-23.988091 -103.192352 -43.188831
4.491802 -97.862144 -52.897087
7.035858 -92.217773 -61.339046
28.129311 3.176392 -45.281067
46.279533 -102.559204 -49.639679
15.466361 -15.395937 -60.206486
34.882877 -50.641129 -51.249111
31.928198 -57.394695 -52.330441
13.355870 30.109468 -7.732572
45.435341 5.661346 -26.938053
8.712794 13.939910 -5.077366
-13.612235 -90.318359 -60.494846
46.490570 -118.462181 -55.640736
27.285101 -95.594582 -47.895195
-22.733521 -118.176842 -41.792656
7.024402 -11.709686 -42.344631
19.548092 -5.265564 -70.414154
28.814777 -19.405853 -53.952339
-15.506667 -81.454277 -44.244072
34.837078 -75.967010 -73.790939
18.843138 -64.992462 -53.299248
10.115706 -0.833538 -66.404243
41.847500 -117.332611 -58.894577
21.502388 -53.806847 -56.273876
55.923359 -110.790123 -59.017502
31.928198 -63.937206 -50.851990
46.649384 -98.338226 -65.560028
-9.015324 -93.273041 -64.942223
38.892822 -90.318367 -48.937115
-12.993857 -38.611332 -46.565620
-14.080505 -126.340553 -42.977776
18.843147 8.835476 -45.299316
15.044264 17.738781 -5.275468
6.289141 -20.883205 -57.540176
-2.560958 -107.835434 -51.419727
31.018421 -81.454292 -47.409809
21.637915 12.251513 -11.742509
-16.744240 -87.785751 -46.143517
40.159115 -48.319588 -47.707481
-6.904838 -86.519455 -66.886017
20.109447 -69.213440 -74.960899
-3.528049 -51.696373 -45.484226
-0.573364 -78.499611 -70.270233
-3.558464 -115.644257 -44.033020
21.823349 -28.058876 -40.234138
10.823288 -85.042114 -67.837967
3.225517 -77.866470 -71.110458
-7.326939 -58.027851 -69.860031
